<svg xmlns="http://www.w3.org/2000/svg" viewBox="0 0 500 500" width="100%" height="100%" fill="none">
  <defs>
    <linearGradient id="sfFaviconGrad" x1="15%" y1="90%" x2="85%" y2="10%">
      <stop offset="0%" stop-color="#FFB300" />
      <stop offset="25%" stop-color="#FF6D00" />
      <stop offset="55%" stop-color="#FF2442" />
      <stop offset="85%" stop-color="#E5006D" />
      <stop offset="100%" stop-color="#C2185B" />
    </linearGradient>
    <linearGradient id="sfFaviconOrange" x1="0%" y1="0%" x2="100%" y2="100%">
      <stop offset="0%" stop-color="#FF7500" />
      <stop offset="100%" stop-color="#FA6400" />
    </linearGradient>
  </defs>

  <circle cx="250" cy="250" r="240" fill="#FFFFFF" />
  <circle cx="250" cy="250" r="228" stroke="url(#sfFaviconGrad)" stroke-width="20" fill="none" />

  <g id="sf-cloche">
    <path d="M 296 208 A 68 68 0 0 1 428 208" stroke="#43A047" stroke-width="10" stroke-linecap="round" fill="none" />
    <path d="M 362 145 C 352 138 340 137 329 140 C 330 152 338 159 349 158 C 356 157 360 151 362 145 Z" fill="#43A047" />
    <path d="M 362 145 C 372 138 384 137 395 140 C 394 152 386 159 375 158 C 368 157 364 151 362 145 Z" fill="#43A047" />
    <path d="M 350 220 C 328 206 320 186 324 167 C 342 167 356 186 357 206 C 357 213 354 218 350 220 Z" fill="#388E3C" />
    <path d="M 333 176 Q 346 196 351 216" stroke="#FFFFFF" stroke-width="3" stroke-linecap="round" fill="none" />
    <path d="M 355 220 C 364 210 382 178 396 166 C 400 186 386 211 369 221 C 363 222 358 221 355 220 Z" fill="#FF8F00" />
    <path d="M 389 175 Q 377 196 363 218" stroke="#FFFFFF" stroke-width="3" stroke-linecap="round" fill="none" />
    <rect x="292" y="225" width="84" height="12" rx="6" fill="#43A047" />
    <path d="M 374 223 L 392 220 C 397 220 398 224 398 230 C 398 236 397 240 392 240 L 374 237 Z" fill="#43A047" />
    <rect x="395" y="222" width="34" height="5" rx="2.5" fill="#43A047" />
    <rect x="395" y="228" width="34" height="5" rx="2.5" fill="#43A047" />
    <rect x="395" y="234" width="34" height="5" rx="2.5" fill="#43A047" />
  </g>

  <!-- Big SF initials and wordmark center -->
  <text x="250" y="300" text-anchor="middle" fill="#FA6400" font-family="system-ui, -apple-system, sans-serif" font-size="70" font-weight="900" letter-spacing="-2">
    Saladfarm
  </text>
  <text x="250" y="350" text-anchor="middle" fill="#1B382B" font-family="system-ui, -apple-system, sans-serif" font-size="18" font-weight="800" letter-spacing="3">
    BUILT FOR FITNESS
  </text>
</svg>
